<svg width="24" height="20" viewBox="0 0 24 20" fill="none" xmlns="http://www.w3.org/2000/svg">
<path d="M7.31512 20C6.51446 20 5.77748 19.8458 5.1042 19.5374C4.44912 19.229 3.89412 18.8027 3.4392 18.2585C2.98428 17.6961 2.64763 17.0703 2.42927 16.381L2.78411 15.9184L2.56575 19.7279H0V0H2.92059V9.55102L2.59304 9.08844C2.93878 8.14513 3.53018 7.37415 4.36723 6.77551C5.20429 6.15873 6.21421 5.85034 7.397 5.85034C8.48881 5.85034 9.48963 6.13152 10.3995 6.69388C11.3275 7.25624 12.0554 8.06349 12.5831 9.11565C13.1108 10.1678 13.3746 11.4467 13.3746 12.9524C13.3746 14.4218 13.1017 15.6825 12.5558 16.7347C12.0281 17.7868 11.3002 18.5941 10.3722 19.1565C9.46234 19.7188 8.44332 20 7.31512 20ZM6.68733 17.6599C7.87012 17.6599 8.78906 17.2426 9.44414 16.4082C10.1174 15.5556 10.4541 14.3946 10.4541 12.9252C10.4541 11.4558 10.1265 10.3039 9.47144 9.46939C8.81635 8.63492 7.89741 8.21769 6.71462 8.21769C5.95035 8.21769 5.28617 8.41723 4.72207 8.81633C4.15797 9.19728 3.71215 9.7415 3.38461 10.449C3.07526 11.1565 2.92059 12 2.92059 12.9796C2.92059 13.941 3.07526 14.7755 3.38461 15.483C3.69395 16.1723 4.13067 16.7075 4.69478 17.0884C5.27707 17.4694 5.94126 17.6599 6.68733 17.6599Z" fill="#D9D9D9"/>
<path d="M17.9317 20C16.5669 20 15.3204 19.737 14.1922 19.2109C13.064 18.6848 12.1724 17.941 11.5173 16.9796L13.5371 15.2381C13.9375 15.9819 14.5107 16.5805 15.2567 17.034C16.021 17.4694 16.9308 17.6871 17.9863 17.6871C18.8233 17.6871 19.4875 17.542 19.9788 17.2517C20.4701 16.9615 20.7158 16.5533 20.7158 16.0272C20.7158 15.6825 20.5975 15.3832 20.3609 15.1293C20.1426 14.8571 19.715 14.6485 19.0781 14.5034L16.2121 13.9048C14.7563 13.6145 13.7191 13.1519 13.1004 12.517C12.4817 11.8639 12.1724 11.0385 12.1724 10.0408C12.1724 9.29705 12.3907 8.60771 12.8275 7.97279C13.2642 7.33787 13.9011 6.82993 14.7381 6.44898C15.5934 6.04989 16.6124 5.85034 17.7952 5.85034C19.16 5.85034 20.3245 6.09524 21.289 6.58503C22.2534 7.05669 22.9904 7.73696 23.4999 8.62585L21.48 10.3129C21.1343 9.5873 20.6248 9.05215 19.9515 8.70748C19.2782 8.34467 18.5777 8.16327 17.8498 8.16327C17.2675 8.16327 16.7671 8.23583 16.3485 8.38095C15.93 8.52608 15.6116 8.72562 15.3932 8.97959C15.1749 9.23356 15.0657 9.53288 15.0657 9.87755C15.0657 10.2404 15.2021 10.5578 15.4751 10.8299C15.7481 11.102 16.2394 11.3107 16.949 11.4558L20.0607 12.1088C21.3709 12.3628 22.2898 12.7982 22.8175 13.415C23.3634 14.0136 23.6364 14.7483 23.6364 15.619C23.6364 16.4898 23.4089 17.2608 22.954 17.932C22.4991 18.585 21.844 19.093 20.9887 19.4558C20.1335 19.8186 19.1145 20 17.9317 20Z" fill="#D9D9D9"/>
</svg>
