<svg width="129" height="20" viewBox="0 0 129 20" fill="none" xmlns="http://www.w3.org/2000/svg">
<path d="M12.1186 11.2712C12.1186 12.1186 11.8997 12.8319 11.4619 13.411C11.024 13.976 10.4308 14.4068 9.6822 14.7034C8.94774 15 8.14266 15.1483 7.26695 15.1483H0V0.105932H8.05085C8.75706 0.105932 9.36441 0.29661 9.87288 0.677966C10.3955 1.0452 10.791 1.52542 11.0593 2.11865C11.3418 2.69774 11.4831 3.30509 11.4831 3.94068C11.4831 4.66102 11.2994 5.34605 10.9322 5.99576C10.565 6.64548 10.0282 7.12571 9.32203 7.43644C10.1836 7.69068 10.8616 8.14972 11.3559 8.81356C11.8644 9.4774 12.1186 10.2966 12.1186 11.2712ZM9.17373 10.7203C9.17373 10.339 9.09605 10 8.94068 9.70339C8.78531 9.39266 8.57345 9.15254 8.30508 8.98305C8.05085 8.79944 7.75424 8.70763 7.41525 8.70763H2.92373V12.6695H7.26695C7.62006 12.6695 7.93785 12.5847 8.22034 12.4153C8.51695 12.2316 8.75 11.9915 8.91949 11.6949C9.08898 11.3983 9.17373 11.0734 9.17373 10.7203ZM2.92373 2.60593V6.39831H6.82203C7.14689 6.39831 7.4435 6.32062 7.71187 6.16525C7.98023 6.00989 8.19209 5.79096 8.34746 5.50847C8.51695 5.22599 8.6017 4.88701 8.6017 4.49153C8.6017 4.11017 8.52401 3.77825 8.36865 3.49576C8.2274 3.21328 8.02966 2.99435 7.77542 2.83898C7.53531 2.68362 7.25989 2.60593 6.94915 2.60593H2.92373Z" fill="#D9D9D9"/>
<path d="M18.8493 15.3602C17.9595 15.3602 17.1544 15.2119 16.4341 14.9153C15.7137 14.6045 15.0993 14.1879 14.5908 13.6653C14.0824 13.1285 13.6869 12.5212 13.4044 11.8432C13.136 11.1511 13.0019 10.4237 13.0019 9.66102C13.0019 8.6017 13.2349 7.63418 13.701 6.75848C14.1812 5.88277 14.8592 5.18362 15.7349 4.66102C16.6247 4.12429 17.6699 3.85593 18.8705 3.85593C20.0852 3.85593 21.1233 4.12429 21.9849 4.66102C22.8465 5.18362 23.5033 5.88277 23.9552 6.75848C24.4213 7.62006 24.6544 8.55226 24.6544 9.55509C24.6544 9.72458 24.6473 9.90113 24.6332 10.0847C24.6191 10.2542 24.605 10.3955 24.5908 10.5085H16.0103C16.0668 11.0734 16.2293 11.5678 16.4976 11.9915C16.7801 12.4153 17.1332 12.7401 17.5569 12.9661C17.9948 13.178 18.4609 13.2839 18.9552 13.2839C19.5202 13.2839 20.0499 13.1497 20.5442 12.8814C21.0527 12.5989 21.3987 12.2316 21.5824 11.7797L24.0188 12.4576C23.7504 13.0226 23.362 13.524 22.8536 13.9619C22.3592 14.3997 21.773 14.7458 21.0951 15C20.4171 15.2401 19.6685 15.3602 18.8493 15.3602ZM15.9468 8.70763H21.7519C21.6954 8.14266 21.5329 7.65537 21.2646 7.24576C21.0103 6.82203 20.6713 6.49718 20.2476 6.27119C19.8239 6.03107 19.3507 5.91102 18.8281 5.91102C18.3197 5.91102 17.8535 6.03107 17.4298 6.27119C17.0202 6.49718 16.6812 6.82203 16.4129 7.24576C16.1586 7.65537 16.0033 8.14266 15.9468 8.70763Z" fill="#D9D9D9"/>
<path d="M36.278 15.1483H33.439V8.91949C33.439 8.02966 33.2836 7.37994 32.9729 6.97034C32.6622 6.56073 32.2314 6.35593 31.6805 6.35593C31.2992 6.35593 30.9107 6.4548 30.5153 6.65254C30.1339 6.85028 29.7879 7.12571 29.4771 7.47881C29.1664 7.8178 28.9404 8.21328 28.7992 8.66525V15.1483H25.9602V4.04661H28.5237V6.1017C28.8062 5.62147 29.1664 5.21893 29.6042 4.89407C30.0421 4.55509 30.5435 4.30085 31.1085 4.13136C31.6876 3.94774 32.2949 3.85593 32.9305 3.85593C33.6226 3.85593 34.1876 3.98305 34.6254 4.23729C35.0774 4.4774 35.4164 4.80932 35.6424 5.23305C35.8825 5.64266 36.0449 6.10876 36.1297 6.63136C36.2285 7.15396 36.278 7.68362 36.278 8.22034V15.1483Z" fill="#D9D9D9"/>
<path d="M52.2261 4.04661C52.1272 3.94774 51.9436 3.81356 51.6752 3.64407C51.421 3.47458 51.1032 3.31215 50.7218 3.15678C50.3546 3.00141 49.9521 2.86723 49.5142 2.75424C49.0763 2.62712 48.6314 2.56356 48.1795 2.56356C47.3885 2.56356 46.7882 2.71186 46.3786 3.00848C45.9831 3.30508 45.7854 3.72175 45.7854 4.25848C45.7854 4.66808 45.9125 4.99294 46.1667 5.23305C46.421 5.47316 46.8023 5.67797 47.3108 5.84746C47.8193 6.01695 48.4549 6.20057 49.2176 6.39831C50.2063 6.63842 51.0608 6.93503 51.7812 7.28814C52.5156 7.62712 53.0735 8.0791 53.4549 8.64407C53.8504 9.19492 54.0481 9.92938 54.0481 10.8475C54.0481 11.6525 53.8998 12.3446 53.6032 12.9237C53.3066 13.4887 52.897 13.9477 52.3744 14.3008C51.8518 14.654 51.2586 14.9153 50.5947 15.0847C49.9309 15.2401 49.2247 15.3178 48.4761 15.3178C47.7275 15.3178 46.9789 15.2401 46.2303 15.0847C45.4817 14.9294 44.7614 14.7105 44.0693 14.428C43.3772 14.1314 42.7416 13.7782 42.1625 13.3686L43.4549 10.8475C43.582 10.9746 43.808 11.1441 44.1328 11.3559C44.4577 11.5537 44.8532 11.7585 45.3193 11.9703C45.7854 12.1681 46.2939 12.3376 46.8447 12.4788C47.3956 12.6201 47.9535 12.6907 48.5184 12.6907C49.3094 12.6907 49.9097 12.5565 50.3193 12.2881C50.7289 12.0198 50.9337 11.6384 50.9337 11.1441C50.9337 10.6921 50.7713 10.339 50.4464 10.0847C50.1215 9.83051 49.6696 9.61158 49.0905 9.42797C48.5114 9.23023 47.8264 9.01836 47.0354 8.79237C46.0891 8.52401 45.2981 8.2274 44.6625 7.90254C44.0269 7.56356 43.5538 7.13983 43.243 6.63136C42.9323 6.12288 42.7769 5.48729 42.7769 4.72458C42.7769 3.6935 43.017 2.83192 43.4973 2.13983C43.9916 1.43362 44.6554 0.903955 45.4888 0.550848C46.3221 0.183616 47.2473 0 48.2642 0C48.9704 0 49.6343 0.0776837 50.2557 0.233051C50.8913 0.388418 51.4845 0.593221 52.0354 0.847458C52.5862 1.1017 53.0806 1.37712 53.5184 1.67373L52.2261 4.04661Z" fill="#D9D9D9"/>
<path d="M68.9984 4.04661H71.6891L67.0493 15.1483H64.6764L62.812 10.3814L60.99 15.1483H58.5959L53.9773 4.04661H56.6467L59.9518 12.4364L61.2442 8.81356L59.3162 4.0678H61.6679L62.812 7.45763L63.9773 4.0678H66.329L64.401 8.81356L65.7145 12.4364L68.9984 4.04661Z" fill="#D9D9D9"/>
<path d="M71.5445 11.8644C71.5445 11.1441 71.7422 10.5155 72.1377 9.97881C72.5473 9.42797 73.1123 9.00424 73.8326 8.70763C74.5529 8.41102 75.3792 8.26271 76.3114 8.26271C76.7775 8.26271 77.2507 8.29802 77.7309 8.36864C78.2111 8.43927 78.6278 8.55226 78.9809 8.70763V8.11441C78.9809 7.40819 78.769 6.86441 78.3453 6.48305C77.9357 6.1017 77.3213 5.91102 76.5021 5.91102C75.8947 5.91102 75.3156 6.01695 74.7648 6.22881C74.2139 6.44068 73.6349 6.75141 73.0275 7.16102L72.1165 5.29661C72.851 4.81638 73.5995 4.45622 74.3623 4.2161C75.1391 3.97599 75.9512 3.85593 76.7987 3.85593C78.3806 3.85593 79.6094 4.25141 80.4851 5.04237C81.375 5.83333 81.8199 6.96328 81.8199 8.4322V11.9703C81.8199 12.2669 81.8693 12.4788 81.9682 12.6059C82.0812 12.7331 82.2577 12.8107 82.4979 12.839V15.1483C82.2436 15.1907 82.0106 15.226 81.7987 15.2542C81.601 15.2825 81.4315 15.2966 81.2902 15.2966C80.7252 15.2966 80.2945 15.1695 79.9979 14.9153C79.7154 14.661 79.5388 14.3503 79.4682 13.9831L79.4046 13.411C78.9244 14.0325 78.3241 14.5127 77.6038 14.8517C76.8834 15.1907 76.149 15.3602 75.4004 15.3602C74.6659 15.3602 74.0021 15.2119 73.4089 14.9153C72.8298 14.6045 72.3707 14.1879 72.0317 13.6653C71.7069 13.1285 71.5445 12.5282 71.5445 11.8644ZM78.4512 12.4364C78.6066 12.267 78.7337 12.0975 78.8326 11.928C78.9315 11.7585 78.9809 11.6031 78.9809 11.4619V10.339C78.6419 10.1977 78.2747 10.0918 77.8792 10.0212C77.4837 9.93644 77.1094 9.89407 76.7563 9.89407C76.0219 9.89407 75.4145 10.0565 74.9343 10.3814C74.4682 10.6921 74.2351 11.1088 74.2351 11.6314C74.2351 11.9138 74.3128 12.1822 74.4682 12.4364C74.6236 12.6907 74.8495 12.8955 75.1462 13.0508C75.4428 13.2062 75.7959 13.2839 76.2055 13.2839C76.6292 13.2839 77.0459 13.2062 77.4555 13.0508C77.8651 12.8814 78.197 12.6766 78.4512 12.4364Z" fill="#D9D9D9"/>
<path d="M94.3669 15.1483H91.5279V8.91949C91.5279 8.02966 91.3726 7.37994 91.0618 6.97034C90.7511 6.56073 90.3203 6.35593 89.7694 6.35593C89.3881 6.35593 88.9997 6.4548 88.6042 6.65254C88.2228 6.85028 87.8768 7.12571 87.5661 7.47881C87.2553 7.8178 87.0293 8.21328 86.8881 8.66525V15.1483H84.0491V4.04661H86.6127V6.1017C86.8952 5.62147 87.2553 5.21893 87.6932 4.89407C88.131 4.55509 88.6324 4.30085 89.1974 4.13136C89.7765 3.94774 90.3838 3.85593 91.0194 3.85593C91.7115 3.85593 92.2765 3.98305 92.7144 4.23729C93.1663 4.4774 93.5053 4.80932 93.7313 5.23305C93.9714 5.64266 94.1338 6.10876 94.2186 6.63136C94.3175 7.15396 94.3669 7.68362 94.3669 8.22034V15.1483Z" fill="#D9D9D9"/>
<path d="M95.6702 13.411L101.793 6.03814H95.9244V4.04661H104.844V5.7839L98.7634 13.1568H104.95V15.1483H95.6702V13.411Z" fill="#D9D9D9"/>
<path d="M111.398 15.3602C110.509 15.3602 109.704 15.2119 108.983 14.9153C108.263 14.6045 107.648 14.1879 107.14 13.6653C106.632 13.1285 106.236 12.5212 105.954 11.8432C105.685 11.1511 105.551 10.4237 105.551 9.66102C105.551 8.6017 105.784 7.63418 106.25 6.75848C106.73 5.88277 107.408 5.18362 108.284 4.66102C109.174 4.12429 110.219 3.85593 111.42 3.85593C112.634 3.85593 113.672 4.12429 114.534 4.66102C115.396 5.18362 116.052 5.88277 116.504 6.75848C116.971 7.62006 117.204 8.55226 117.204 9.55509C117.204 9.72458 117.196 9.90113 117.182 10.0847C117.168 10.2542 117.154 10.3955 117.14 10.5085H108.559C108.616 11.0734 108.778 11.5678 109.047 11.9915C109.329 12.4153 109.682 12.7401 110.106 12.9661C110.544 13.178 111.01 13.2839 111.504 13.2839C112.069 13.2839 112.599 13.1497 113.093 12.8814C113.602 12.5989 113.948 12.2316 114.132 11.7797L116.568 12.4576C116.3 13.0226 115.911 13.524 115.403 13.9619C114.908 14.3997 114.322 14.7458 113.644 15C112.966 15.2401 112.218 15.3602 111.398 15.3602ZM108.496 8.70763H114.301C114.245 8.14266 114.082 7.65537 113.814 7.24576C113.559 6.82203 113.221 6.49718 112.797 6.27119C112.373 6.03107 111.9 5.91102 111.377 5.91102C110.869 5.91102 110.403 6.03107 109.979 6.27119C109.569 6.49718 109.23 6.82203 108.962 7.24576C108.708 7.65537 108.552 8.14266 108.496 8.70763Z" fill="#D9D9D9"/>
<path d="M118.391 17.3093C118.645 17.3658 118.878 17.4153 119.09 17.4576C119.316 17.5 119.506 17.5212 119.662 17.5212C119.93 17.5212 120.149 17.4506 120.319 17.3093C120.502 17.1822 120.679 16.9421 120.848 16.589C121.018 16.25 121.194 15.7698 121.378 15.1483L116.992 4.04661H119.937L122.925 12.2458L125.552 4.04661H128.264L123.603 17.3517C123.433 17.846 123.172 18.291 122.819 18.6864C122.48 19.096 122.049 19.4138 121.526 19.6398C121.018 19.8799 120.446 20 119.81 20C119.584 20 119.358 19.9788 119.132 19.9364C118.906 19.9082 118.659 19.8517 118.391 19.7669V17.3093Z" fill="#D9D9D9"/>
</svg>
