<svg width="26" height="26" viewBox="0 0 26 26" fill="none" xmlns="http://www.w3.org/2000/svg">
<path d="M16.25 17.1875V19.2188C16.25 19.7575 16.036 20.2741 15.6551 20.6551C15.2741 21.036 14.7575 21.25 14.2188 21.25H4.46875C3.93003 21.25 3.41337 21.036 3.03244 20.6551C2.65151 20.2741 2.4375 19.7575 2.4375 19.2188V7.03125C2.4375 6.49253 2.65151 5.97587 3.03244 5.59494C3.41337 5.21401 3.93003 5 4.46875 5H14.2188C14.7575 5 15.2741 5.21401 15.6551 5.59494C16.036 5.97587 16.25 6.49253 16.25 7.03125V9.0625M19.5 17.1875L23.5625 13.125L19.5 9.0625M9.69922 13.125H23.5625" stroke="#01FAC4" stroke-width="1.625" stroke-linecap="round" stroke-linejoin="round"/>
</svg>
