<svg width="26" height="26" viewBox="0 0 26 26" fill="none" xmlns="http://www.w3.org/2000/svg">
<path d="M16.25 19.6875V21.7188C16.25 22.2575 16.036 22.7741 15.6551 23.1551C15.2741 23.536 14.7575 23.75 14.2188 23.75H4.46875C3.93003 23.75 3.41337 23.536 3.03244 23.1551C2.65151 22.7741 2.4375 22.2575 2.4375 21.7188V9.53125C2.4375 8.99253 2.65151 8.47587 3.03244 8.09494C3.41337 7.71401 3.93003 7.5 4.46875 7.5H14.2188C14.7575 7.5 15.2741 7.71401 15.6551 8.09494C16.036 8.47587 16.25 8.99253 16.25 9.53125V11.5625M19.5 19.6875L23.5625 15.625L19.5 11.5625M9.69922 15.625H23.5625" stroke="#01FAC4" stroke-width="1.625" stroke-linecap="round" stroke-linejoin="round"/>
</svg>
